<?xml version="1.0" encoding="UTF-8"?><svg id="Calque_1" xmlns="http://www.w3.org/2000/svg" viewBox="0 0 312.75 255.67"><defs><style>.cls-1{fill:#fff;}</style></defs><path class="cls-1" d="m0,227.66c34.48,2.26,65.63-6.12,93.73-27.44-29.53-2.72-49.27-17.38-60.08-45.02,9.78,1.63,18.82,1.53,28.19-1.03-31.82-9.65-48.78-30.63-51.04-64.3,9.39,4.82,18.54,7.65,28.64,8.1C10.97,74.25,4.52,45.82,19.99,11.6c35.26,41.38,79.22,63.94,133.15,67.82-.35-3.03-.69-5.83-.99-8.63-3.26-31.41,17.42-61.24,48.22-68.7,22.86-5.54,43.23-.04,60.52,15.99,2.01,1.87,3.73,2.23,6.14,1.64,12.05-2.95,23.58-7.21,34.42-13.27.68-.38,1.36-.75,2.09-1.15-.24,8.31-11.04,22.64-25.61,34.89,2.81-.47,5.63-.87,8.41-1.45,2.94-.6,5.86-1.29,8.75-2.09,2.89-.79,5.75-1.71,8.58-2.68,2.8-.97,5.55-2.08,9.07-3.4-5.79,8.68-12.06,15.96-19.13,22.55-2.85,2.65-5.73,5.35-8.94,7.53-3.01,2.04-3.92,4.3-3.82,7.95.71,25.74-4.35,50.46-14.24,74.16-15.79,37.86-40.74,67.98-76.29,88.86-20.99,12.33-43.73,19.56-67.89,22.51-39.37,4.79-76.69-1.56-111.75-20.33-3.62-1.94-7.13-4.09-10.69-6.14Z"/></svg>