<?xml version="1.0" encoding="UTF-8"?><svg id="Calque_1" xmlns="http://www.w3.org/2000/svg" viewBox="0 0 227.38 261.5"><defs><style>.cls-1{fill:#fff;}</style></defs><path class="cls-1" d="m93.63,142c-4.04-.23-7.96-.94-11.8-.6-16.24,1.45-32.38,11.48-35.91,29-3.02,14.96,2.89,29.01,15.84,38.7,20.17,15.09,50.59,3.27,56.55-20.94.81-3.31,1.35-6.78,1.35-10.17.1-57.71.09-115.42.11-173.13Q119.77,0,124.61,0c11.86,0,23.72,0,35.58,0,1.34,0,2.69,0,4.48,0-.39,8.97,2.72,16.9,5.9,24.72,3.96,9.76,10.41,17.63,18.68,24.35,7.61,6.19,16.03,10.02,25.41,12.07,3.11.68,6.33.92,9.52,1.09,2,.11,2.86.71,2.86,2.83.04,13.21.13,26.41.33,39.62.04,2.54-1.3,2.87-3.22,2.8-14.18-.5-27.9-3.17-40.78-9.3-5.85-2.78-11.51-5.94-17.57-9.09,0,2.48,0,4.9,0,7.31.03,27.06.07,54.13.08,81.19,0,33.3-20.86,66.06-51.9,77.74-29.85,11.23-58.25,7.29-83.59-13.44-15.12-12.37-24.79-27.98-28.58-46.98-5.11-25.66.54-48.95,17.14-69.33,11.49-14.1,26.33-23.06,43.86-27.63,9.06-2.36,18.3-2.38,27.56-1.95,1.84.09,3.25.63,3.25,3.06.02,13.83.16,27.66.24,41.49,0,.47-.15.93-.25,1.45Z"/></svg>