<?xml version="1.0" encoding="UTF-8"?><svg id="Calque_1" xmlns="http://www.w3.org/2000/svg" viewBox="0 0 395.87 395.91"><defs><style>.cls-1{fill:#fff;}</style></defs><path class="cls-1" d="m.03,197.67c0-27.85-.01-55.69,0-83.54C.06,60.82,37.89,13.81,90.04,2.7c7.75-1.65,15.81-2.53,23.74-2.56C169.75-.07,225.72.02,281.69.03c53.36,0,100.62,38.24,111.43,90.54,1.72,8.32,2.57,16.96,2.6,25.45.23,55.12.11,110.24.12,165.37,0,53.42-38.56,101.09-90.81,111.77-8.32,1.7-16.96,2.57-25.45,2.61-55.4.23-110.8.12-166.2.12-54.13,0-103-41.54-111.66-95.1-1.04-6.44-1.58-13.04-1.62-19.57-.17-27.85-.07-55.69-.07-83.54Zm30.43.02c0,26.7-.03,53.41.03,80.11,0,4.27.06,8.59.65,12.81,6.26,44.67,40.76,74.58,85.91,74.59,54.11,0,108.22.05,162.34-.06,5.67-.01,11.45-.4,16.99-1.52,41.33-8.4,68.7-41.82,68.78-83.96.1-54.55.15-109.1-.12-163.64-.04-8.03-1.06-16.31-3.22-24.03-10.28-36.75-41.36-60.91-80.8-61.32-56.95-.6-113.93-.31-170.88.31-22.57.25-41.64,10.03-57.03,26.5-15.66,16.76-22.63,36.93-22.64,59.69,0,26.85,0,53.69,0,80.54Z"/><path class="cls-1" d="m304.43,197.78c0,59.17-47.7,106.71-107.04,106.69-58.59-.02-106.56-48.14-106.21-107.17.35-58.65,47.56-105.78,106.04-106.1,59.34-.33,107.21,47.58,107.21,106.58Zm-106.63-75.72c-41.91,0-75.35,33.44-75.87,74.89-.54,43.12,35.03,76.36,74.88,76.85,42.4.53,76.63-34.65,76.96-75.23.34-41.08-33.38-77.13-75.98-76.51Z"/><path class="cls-1" d="m311.86,60.79c12.66-.04,22.98,10.05,23.12,22.6.14,12.74-10.14,23.21-22.9,23.3-12.64.09-23.23-10.46-23.17-23.07.07-12.51,10.39-22.79,22.94-22.83Z"/></svg>