<?xml version="1.0" encoding="UTF-8"?><svg id="Calque_1" xmlns="http://www.w3.org/2000/svg" viewBox="0 0 316.48 339.05"><defs><style>.cls-1{fill:#fff;}</style></defs><path class="cls-1" d="m78.97,338.94c0-13.17-.27-25.11.11-37.03.2-6.28-1.96-8.31-8.25-8.22-21.04.32-42.09-.06-63.12.22C1.74,293.99-.01,291.99,0,286.08c.19-73.8.11-147.59.26-221.39,0-3.88.94-7.94,2.3-11.6,5.73-15.44,11.97-30.7,17.62-46.18C22.05,1.78,25.01,0,30.26,0c92.96.11,185.92.14,278.88.03,5.57,0,7.36,1.83,7.34,7.38-.19,63.14-.09,126.28-.42,189.42-.02,3.78-2.03,8.45-4.7,11.16-26.7,27.17-53.6,54.14-80.83,80.77-3,2.94-8.36,4.69-12.7,4.83-16.76.56-33.56.54-50.33.13-6.62-.16-10.84,2.1-14.59,7.44-7.64,10.89-16.05,21.24-23.78,32.09-2.93,4.11-6.1,5.93-11.23,5.8-12.48-.34-24.98-.11-38.94-.11ZM47.22,35.85v212.07h66.92v41.39c.58.33,1.16.66,1.74.98,12.27-12.47,24.3-25.19,36.97-37.24,3.09-2.94,8.24-5.04,12.52-5.19,17.3-.58,34.64-.47,51.95-.13,5.86.11,9.98-1.84,13.99-5.95,14.33-14.69,28.8-29.25,43.56-43.5,4.6-4.44,6.46-9.04,6.43-15.41-.23-46.11-.13-92.22-.14-138.33,0-2.82,0-5.64,0-8.68H47.22Z"/><path class="cls-1" d="m124.33,90.36h34.25c.27,2.44.69,4.49.69,6.54.05,25.58-.13,51.16.15,76.74.07,6.2-1.77,8.55-8.13,8.21-8.74-.46-17.52-.12-26.95-.12v-91.38Z"/><path class="cls-1" d="m225.57,180.86h-33.43v-89.76h33.43v89.76Z"/></svg>