<?xml version="1.0" encoding="UTF-8"?><svg id="Calque_1" xmlns="http://www.w3.org/2000/svg" viewBox="0 0 167.55 357.02"><defs><style>.cls-1{fill:#fff;}</style></defs><path class="cls-1" d="m112.58,267.83c0,26.37-.19,52.75.12,79.11.09,7.41-2.24,10.24-9.89,10.07-18.79-.42-37.59-.11-56.38-.14-9.67-.02-10.23-.55-10.24-10.21-.02-52.48,0-104.96-.02-157.45,0-9.86-.03-9.86-10.11-9.68Q.08,180.01.08,153.84c0-10.18.19-20.37-.07-30.55-.14-5.32,1.73-7.68,7.22-7.49,7.3.26,14.63-.21,21.92.17,5.6.29,7.18-2.03,7.25-7.32.22-16.67-.21-33.45,1.57-49.98C41.53,25.5,67.29,2.52,100.68,1.39,119.44.75,138.2.33,156.97.02c9.82-.16,10.38.55,10.4,10.01.04,14.62-.36,29.26.16,43.86.27,7.5-2.81,9.61-9.63,9.41-9.13-.26-18.28-.22-27.4.16-11.5.48-17.63,6.76-18.04,18.25-.32,8.87-.12,17.75-.39,26.62-.14,4.75,1.88,6.47,6.52,6.42,12.79-.15,25.58-.12,38.37,0,8.82.09,9.77,1.24,8.94,10.12-1.5,16.07-3.19,32.11-4.54,48.19-.43,5.05-2.9,6.69-7.62,6.63-11.22-.13-22.46.24-33.67-.14-5.83-.19-7.66,1.72-7.6,7.59.27,26.89.12,53.79.12,80.68Z"/></svg>